<svg width="240" height="240" viewBox="0 0 240 240" fill="none" xmlns="http://www.w3.org/2000/svg">
<rect width="240" height="240" rx="32" fill="url(#paint0_linear_10_2)"/>
<path d="M67 117V156L71 159V162.5H56V159L59.5 156V100.5L56 98.5V95.5H81V98.5L77 100.5L89.5 144L104.5 102.5V46.5C104.5 28 74.5 34.5 74.5 51C74.5 67.5 92.5 68 93 75C93.5 82 80.5 83.5 74 80C67.5 76.5 64 74 64.5 64V52C64.5 49.5 67 35.5 87.5 29C89.5 28.5 95.5817 27.7414 100.5 29C110.134 31.4655 119 40 119 46.5V122L134.5 102.5L131 98.5V95.5H147V98.5H144.5C144.5 98.5 132.5 117.5 132.5 123C132.5 128.5 153 163.5 153 163.5C176 204.5 177 203 183 203C189 203 191.5 196.5 191.5 190.5C191.5 184.5 189.5 178.5 179 178.5H171.5H170.5C167.5 178.5 168 174.5 168.5 172.5C169 170.5 169.5 167.5 174.5 167.5H179H180C184.5 167.5 196 172 197 182.5C198 193 197.5 193 197 196.5C196.5 200 193 211.5 181 211.5H180C146.5 209 119.795 121 119 126.5C118.205 132 119 156 119 156L122.5 159V162.5H100.5V159L104.5 156V121L90.5 161.5H84C77 161.5 73.6389 134.378 67 117Z" fill="url(#paint1_linear_10_2)"/>
<path d="M104.5 102.5L89.5 144L77 100.5L81 98.5V95.5H56V98.5L59.5 100.5V156L56 159V162.5H71V159L67 156V117C73.6389 134.378 77 161.5 84 161.5M104.5 102.5C104.5 102.5 104.5 65 104.5 46.5M104.5 102.5V46.5M104.5 46.5C104.5 28 74.5 34.5 74.5 51C74.5 67.5 92.5 68 93 75C93.5 82 80.5 83.5 74 80C67.5 76.5 64 74 64.5 64M64.5 64C64.5 61.5 64.5 54.5 64.5 52M64.5 64C64.5 59.3137 64.5 52 64.5 52M64.5 64V52M64.5 52C64.5 49.5 67 35.5 87.5 29C89.5 28.5 95.5817 27.7414 100.5 29C110.134 31.4655 119 40 119 46.5V122L134.5 102.5L131 98.5V95.5H147V98.5H144.5C144.5 98.5 132.5 117.5 132.5 123C132.5 128.5 153 163.5 153 163.5C176 204.5 177 203 183 203C189 203 191.5 196.5 191.5 190.5C191.5 184.5 189.5 178.5 179 178.5H171.5M180 211.5C146.5 209 119.795 121 119 126.5C118.205 132 119 156 119 156L122.5 159V162.5H100.5V159L104.5 156V121L90.5 161.5M180 211.5C180 211.5 180.609 211.5 181 211.5M180 211.5H181M90.5 161.5C90.5 161.5 91 161.5 84 161.5M90.5 161.5H84M181 211.5C193 211.5 196.5 200 197 196.5C197.5 193 198 193 197 182.5C196 172 184.5 167.5 180 167.5M171.5 178.5C171.5 178.5 173.5 178.5 170.5 178.5M171.5 178.5H170.5M170.5 178.5C167.5 178.5 168 174.5 168.5 172.5C169 170.5 169.5 167.5 174.5 167.5H179M179 167.5C179 167.5 175.5 167.5 180 167.5M179 167.5H180" stroke="white"/>
<defs>
<linearGradient id="paint0_linear_10_2" x1="0" y1="0" x2="240" y2="240" gradientUnits="userSpaceOnUse">
<stop stop-color="#F3A7FF" stop-opacity="0.97"/>
<stop offset="1" stop-color="#230239"/>
</linearGradient>
<linearGradient id="paint1_linear_10_2" x1="127" y1="222.5" x2="127" y2="15.5" gradientUnits="userSpaceOnUse">
<stop stop-color="#DDCFFF"/>
<stop offset="1" stop-color="white"/>
</linearGradient>
</defs>
</svg>
